<?xml version="1.0" standalone="no"?><!DOCTYPE svg PUBLIC "-//W3C//DTD SVG 1.1//EN" "http://www.w3.org/Graphics/SVG/1.1/DTD/svg11.dtd"><svg t="1786359469382" class="icon" viewBox="0 0 1024 1024" version="1.1" xmlns="http://www.w3.org/2000/svg" p-id="1642" xmlns:xlink="http://www.w3.org/1999/xlink" width="80" height="80"><path d="M0.256 0m102.4 0l819.2 0q102.4 0 102.4 102.4l0 819.2q0 102.4-102.4 102.4l-819.2 0q-102.4 0-102.4-102.4l0-819.2q0-102.4 102.4-102.4Z" fill="#2A66FF" p-id="1643"></path><path d="M0 742.4h921.6a102.4 102.4 0 0 1 102.4 102.4v76.8a102.4 102.4 0 0 1-102.4 102.4H102.4a102.4 102.4 0 0 1-102.4-102.4v-179.2z" fill="#0051F0" p-id="1644"></path><path d="M768 0h153.6a102.4 102.4 0 0 1 102.4 102.4v819.2a102.4 102.4 0 0 1-102.4 102.4h-51.2a102.4 102.4 0 0 1-102.4-102.4V0z" fill="#428AFF" p-id="1645"></path><path d="M768 742.4h153.6a102.4 102.4 0 0 1 102.4 102.4v76.8a102.4 102.4 0 0 1-102.4 102.4h-51.2a102.4 102.4 0 0 1-102.4-102.4v-179.2z" fill="#3D75FF" p-id="1646"></path><path d="M653.824 240.384l-76.8 353.536H486.4l-54.272-225.536a197.12 197.12 0 0 1-6.4-40.192 185.344 185.344 0 0 1-6.4 40.192l-56.576 225.536h-92.928l-76.8-353.536h81.664l39.936 236.8c0 5.376 2.048 15.36 3.328 30.208 0-3.072 0 0 1.536 11.264h1.536c2.048-15.872 4.352-29.696 6.4-41.472l54.528-236.8h84.736l57.6 239.872a25.6 25.6 0 0 0 1.536 6.4 215.296 215.296 0 0 1 3.328 32h1.536c0-12.8 2.56-25.6 4.864-39.936l38.4-238.336z" fill="#FFFFFF" p-id="1647"></path></svg>